<svg xmlns="http://www.w3.org/2000/svg" fill="none" viewBox="0 0 40 40">
  <rect width="40" height="40" rx="8" fill="#D7FAF8"/>
  <path d="M17 22.25l6-6m4.5-3.493V29.75l-3.75-1.5-3.75 1.5-3.75-1.5-3.75 1.5V12.757c0-1.108.806-2.057 1.907-2.185a48.503 48.503 0 0111.186 0c1.1.128 1.907 1.077 1.907 2.185zM17.75 17h.008v.008h-.008V17zm.375 0a.375.375 0 11-.75 0 .375.375 0 01.75 0zm4.125 4.5h.008v.008h-.008V21.5zm.375 0a.375.375 0 11-.75 0 .375.375 0 01.75 0z" stroke="#24BFB5" stroke-width="1.5" stroke-linecap="round" stroke-linejoin="round"/>
</svg>
